<svg width="32" height="32" viewBox="0 0 32 32" fill="none" xmlns="http://www.w3.org/2000/svg">
<path d="M10.8992 14.8681C10.749 15.0168 10.6298 15.1938 10.5484 15.3887C10.467 15.5836 10.4251 15.7927 10.4251 16.0039C10.4251 16.215 10.467 16.4241 10.5484 16.619C10.6298 16.814 10.749 16.9909 10.8992 17.1396C11.1995 17.4375 11.6058 17.6047 12.0292 17.6047C12.4527 17.6047 12.8589 17.4375 13.1592 17.1396C13.3094 16.9909 13.4287 16.814 13.51 16.619C13.5914 16.4241 13.6333 16.215 13.6333 16.0039C13.6333 15.7927 13.5914 15.5836 13.51 15.3887C13.4287 15.1938 13.3094 15.0168 13.1592 14.8681C12.8589 14.5702 12.4527 14.403 12.0292 14.403C11.6058 14.403 11.1995 14.5702 10.8992 14.8681ZM14.8582 18.8352C14.5597 19.1349 14.3921 19.5403 14.3921 19.9629C14.3921 20.3855 14.5597 20.7909 14.8582 21.0906C15.0072 21.2406 15.1845 21.3596 15.3798 21.4408C15.5751 21.522 15.7846 21.5638 15.9962 21.5638C16.2078 21.5638 16.4173 21.522 16.6126 21.4408C16.8079 21.3596 16.9852 21.2406 17.1342 21.0906C17.4327 20.7909 17.6003 20.3855 17.6003 19.9629C17.6003 19.5403 17.4327 19.1349 17.1342 18.8352C16.9852 18.6853 16.8079 18.5663 16.6126 18.485C16.4173 18.4038 16.2078 18.362 15.9962 18.362C15.7846 18.362 15.5751 18.4038 15.3798 18.485C15.1845 18.5663 15.0072 18.6853 14.8582 18.8352ZM29.2835 2.83906C27.5399 1.08464 25.1856 0.0689331 22.7105 0.00338141C20.2355 -0.0621703 17.8305 0.827486 15.9962 2.48714C14.1703 0.846864 11.7847 -0.0338808 9.32884 0.0256094C6.87295 0.0850996 4.53298 1.08031 2.78903 2.80706C1.05642 4.55038 0.0591993 6.89014 0.00255203 9.34492C-0.0540953 11.7997 0.834136 14.1828 2.48449 16.0039C1.25061 17.3806 0.440971 19.0833 0.152743 20.9079C-0.135485 22.7324 0.109938 24.6012 0.859561 26.29C1.60918 27.9787 2.83116 29.4158 4.37886 30.4286C5.92656 31.4414 7.73422 31.9871 9.58494 32C11.9575 32.0025 14.2448 31.1179 15.9962 29.5206C17.8229 31.1656 20.2119 32.0492 22.6716 31.9897C25.1313 31.9302 27.4746 30.932 29.2194 29.2007C30.9497 27.4553 31.944 25.1144 31.9977 22.6596C32.0514 20.2049 31.1603 17.8229 29.5079 16.0039C31.1603 14.1848 32.0514 11.8029 31.9977 9.34811C31.944 6.89335 30.9497 4.55246 29.2194 2.80706L29.2835 2.83906ZM26.9434 5.07851C28.058 6.22286 28.7039 7.74161 28.7543 9.33675C28.8047 10.9319 28.256 12.4883 27.2158 13.7004L18.3042 4.80658C19.5294 3.792 21.0841 3.25961 22.6754 3.30969C24.2667 3.35978 25.7846 3.9889 26.9434 5.07851ZM5.04899 26.9292C3.93434 25.7849 3.28844 24.2661 3.23803 22.671C3.18762 21.0758 3.73634 19.5195 4.77651 18.3073L13.7522 27.2651C12.5134 28.2857 10.9416 28.8156 9.33642 28.7536C7.73127 28.6917 6.20511 28.0422 5.04899 26.9292ZM26.9434 26.9292C25.7264 28.0908 24.1074 28.7391 22.4234 28.7391C20.7395 28.7391 19.1205 28.0908 17.9035 26.9292L5.08104 14.1323C3.88694 12.9335 3.2167 11.3118 3.2167 9.62141C3.2167 7.93103 3.88694 6.30933 5.08104 5.11051C6.28227 3.91879 7.90721 3.24988 9.60097 3.24988C11.2947 3.24988 12.9197 3.91879 14.1209 5.11051L26.9434 17.9074C28.1375 19.1062 28.8077 20.7279 28.8077 22.4183C28.8077 24.1087 28.1375 25.7304 26.9434 26.9292ZM18.8331 14.8681C18.6829 15.0168 18.5637 15.1938 18.4823 15.3887C18.4009 15.5836 18.359 15.7927 18.359 16.0039C18.359 16.215 18.4009 16.4241 18.4823 16.619C18.5637 16.814 18.6829 16.9909 18.8331 17.1396C19.1335 17.4375 19.5397 17.6047 19.9631 17.6047C20.3866 17.6047 20.7928 17.4375 21.0931 17.1396C21.2433 16.9909 21.3626 16.814 21.4439 16.619C21.5253 16.4241 21.5672 16.215 21.5672 16.0039C21.5672 15.7927 21.5253 15.5836 21.4439 15.3887C21.3626 15.1938 21.2433 15.0168 21.0931 14.8681C20.7928 14.5702 20.3866 14.403 19.9631 14.403C19.5397 14.403 19.1335 14.5702 18.8331 14.8681ZM14.8582 10.9171C14.5597 11.2168 14.3921 11.6222 14.3921 12.0448C14.3921 12.4674 14.5597 12.8728 14.8582 13.1726C15.0072 13.3225 15.1845 13.4415 15.3798 13.5227C15.5751 13.6039 15.7846 13.6457 15.9962 13.6457C16.2078 13.6457 16.4173 13.6039 16.6126 13.5227C16.8079 13.4415 16.9852 13.3225 17.1342 13.1726C17.4327 12.8728 17.6003 12.4674 17.6003 12.0448C17.6003 11.6222 17.4327 11.2168 17.1342 10.9171C16.9852 10.7672 16.8079 10.6482 16.6126 10.567C16.4173 10.4857 16.2078 10.4439 15.9962 10.4439C15.7846 10.4439 15.5751 10.4857 15.3798 10.567C15.1845 10.6482 15.0072 10.7672 14.8582 10.9171Z" fill="white"/>
</svg>
